<svg xmlns="http://www.w3.org/2000/svg" width="256" height="256" viewBox="0 0 256 256">
  <rect width="256" height="256" fill="none"/>
  <path d="M73 52h110c10 0 18 8 18 18v126c0 10-8 18-18 18H73c-10 0-18-8-18-18V70c0-10 8-18 18-18z" fill="#4a463d" stroke="#d6a84d" stroke-width="8"/>
  <path d="M84 76h88v44H84z" fill="#102d32" stroke="#54d6c8" stroke-width="5"/>
  <circle cx="104" cy="98" r="10" fill="#77f0d4"/>
  <circle cx="152" cy="98" r="10" fill="#77f0d4"/>
  <path d="M88 150h78c12 0 22 10 22 22v16H66v-16c0-12 10-22 22-22z" fill="#84643a"/>
  <path d="M187 132h34v34h-34z" fill="#c58a35" stroke="#ffe08f" stroke-width="6"/>
  <path d="M92 184h72" stroke="#ffd774" stroke-width="9" stroke-linecap="round"/>
</svg>
